<?xml version="1.0" encoding="UTF-8" standalone="no"?>
<svg
   xmlns:osb="http://www.openswatchbook.org/uri/2009/osb"
   xmlns:dc="http://purl.org/dc/elements/1.1/"
   xmlns:cc="http://creativecommons.org/ns#"
   xmlns:rdf="http://www.w3.org/1999/02/22-rdf-syntax-ns#"
   xmlns:svg="http://www.w3.org/2000/svg"
   xmlns="http://www.w3.org/2000/svg"
   xmlns:sodipodi="http://sodipodi.sourceforge.net/DTD/sodipodi-0.dtd"
   xmlns:inkscape="http://www.inkscape.org/namespaces/inkscape"
   width="271mm"
   height="271mm"
   viewBox="0 0 271 270.99999"
   version="1.1"
   id="svg8"
   sodipodi:docname="logo7sgF.svg"
   inkscape:version="1.0.1 (3bc2e813f5, 2020-09-07)"
   inkscape:export-filename="E:\xampp\htdocs\fuelment\web\src\assets\logo7sgF.png"
   inkscape:export-xdpi="115"
   inkscape:export-ydpi="115">
  <defs
     id="defs2">
    <linearGradient
       id="linearGradient886"
       osb:paint="solid">
      <stop
         style="stop-color:#4caf50;stop-opacity:1;"
         offset="0"
         id="stop884" />
    </linearGradient>
    <inkscape:path-effect
       effect="bspline"
       id="path-effect870"
       is_visible="true"
       lpeversion="1"
       weight="33.333333"
       steps="2"
       helper_size="0"
       apply_no_weight="true"
       apply_with_weight="true"
       only_selected="false" />
    <rect
       x="8.6934528"
       y="3.6852679"
       width="3.2127976"
       height="18.331844"
       id="rect844" />
    <rect
       x="6.8035712"
       y="6.9925594"
       width="5.4806547"
       height="20.977678"
       id="rect838" />
    <clipPath
       clipPathUnits="userSpaceOnUse"
       id="clipPath1457">
      <rect
         style="display:none;fill:#808080;fill-opacity:1;stroke:none;stroke-width:5.02915;stroke-linejoin:round;paint-order:markers fill stroke"
         id="rect1459"
         width="11.30266"
         height="21.080622"
         x="2.7881393"
         y="1.1490486"
         d="M 2.7881393,1.1490486 H 14.090799 V 22.22967 H 2.7881393 Z" />
      <path
         id="lpe_path-effect1461"
         style="fill:#808080;fill-opacity:1;stroke:none;stroke-width:5.02915;stroke-linejoin:round;paint-order:markers fill stroke"
         class="powerclip"
         d="M 2.1796785,-2.1325773 H 25.5 V 28.031846 H 2.1796785 Z M 2.7881393,1.1490486 V 22.22967 H 14.090799 V 1.1490486 Z" />
    </clipPath>
    <inkscape:path-effect
       effect="powerclip"
       id="path-effect1461"
       is_visible="true"
       lpeversion="1"
       inverse="true"
       flatten="false"
       hide_clip="false"
       message="m 100.32193,50.78134 v -3.840376 h 0.14506 0.14505 l -0.004,1.424752 c -0.002,0.783614 -0.006,2.511785 -0.008,3.840377 l -0.004,2.415624 h -0.13689 -0.13719 z" />
  </defs>
  <sodipodi:namedview
     id="base"
     pagecolor="#ffffff"
     bordercolor="#666666"
     borderopacity="1.0"
     inkscape:pageopacity="0.0"
     inkscape:pageshadow="2"
     inkscape:zoom="0.22459322"
     inkscape:cx="1002.4992"
     inkscape:cy="390.73452"
     inkscape:document-units="mm"
     inkscape:current-layer="layer2"
     inkscape:document-rotation="0"
     showgrid="false"
     inkscape:window-width="1920"
     inkscape:window-height="1017"
     inkscape:window-x="-8"
     inkscape:window-y="-8"
     inkscape:window-maximized="1"
     inkscape:snap-intersection-paths="true"
     inkscape:object-nodes="false"
     inkscape:snap-smooth-nodes="false"
     showguides="false"
     inkscape:lockguides="false"
     units="mm"
     width="209mm" />
  <metadata
     id="metadata5">
    <rdf:RDF>
      <cc:Work
         rdf:about="">
        <dc:format>image/svg+xml</dc:format>
        <dc:type
           rdf:resource="http://purl.org/dc/dcmitype/StillImage" />
        <dc:title />
      </cc:Work>
    </rdf:RDF>
  </metadata>
  <g
     inkscape:label="Warstwa 1"
     inkscape:groupmode="layer"
     id="layer1">
    <text
       xml:space="preserve"
       id="text836"
       style="font-style:normal;font-weight:normal;font-size:10.5833px;line-height:1.25;font-family:sans-serif;white-space:pre;shape-inside:url(#rect838);fill:#000000;fill-opacity:1;stroke:none;" />
    <text
       xml:space="preserve"
       id="text842"
       style="font-style:normal;font-weight:normal;font-size:10.5833px;line-height:1.25;font-family:sans-serif;white-space:pre;shape-inside:url(#rect844);fill:#000000;fill-opacity:1;stroke:none;" />
  </g>
  <g
     inkscape:groupmode="layer"
     id="layer2"
     inkscape:label="Warstwa 2">
    <path
       d="m 18,9.3045231 c -0.552285,0 -1,-0.4477153 -1,-1 0,-0.5522847 0.447715,-1 1,-1 0.552285,0 1,0.4477153 1,1 0,0.5522847 -0.447715,1 -1,1 m 1.77,-2.77 C 18.670458,5.3942422 17.488022,4.2334929 16.349896,3.0958378 c -0.693509,-0.6932228 -1.774388,0.3461687 -1.06,1.06 L 17.11,5.9745231 c -0.94,0.33 -1.61,1.26 -1.61,2.33 0,1.380712 1.119288,2.4999999 2.5,2.4999999 0.36,0 0.69,-0.08 1,-0.21 v 9.937323 c 0,0.552285 -0.447715,1 -1,1 -0.552285,0 -1,-0.447715 -1,-1 V 13.999969 C 17,12.889969 16.100023,12 15.000023,12 H 14 c -9.013925,0.25516 -9.1732502,1.13645 0,1.5 h 1.000023 C 15.325719,13.5 15.5,13.706493 15.5,13.999969 v 6.531877 c 0,1.380712 1.119288,2.5 2.5,2.5 1.380712,0 2.5,-1.119288 2.5,-2.5 V 8.3045231 c 0,-0.69 -0.28,-1.32 -0.73,-1.77 z"
       id="path2"
       clip-path="url(#clipPath1457)"
       transform="matrix(-9.1268289,0,0,9.0823889,247.28204,21.170185)"
       style="fill:#ffffff;fill-opacity:1;stroke-width:0.911738;stroke-miterlimit:4;stroke-dasharray:none"
       sodipodi:nodetypes="cssscccscsscsssssccssssssc"
       inkscape:original-d="m 18,9.3045231 c -0.552285,0 -1,-0.4477153 -1,-1 0,-0.5522847 0.447715,-1 1,-1 0.552285,0 1,0.4477153 1,1 0,0.5522847 -0.447715,1 -1,1 m 1.77,-2.77 C 18.670458,5.3942422 17.488022,4.2334929 16.349896,3.0958378 c -0.693509,-0.6932228 -1.774388,0.3461687 -1.06,1.06 L 17.11,5.9745231 c -0.94,0.33 -1.61,1.26 -1.61,2.33 0,1.380712 1.119288,2.4999999 2.5,2.4999999 0.36,0 0.69,-0.08 1,-0.21 v 9.937323 c 0,0.552285 -0.447715,1 -1,1 -0.552285,0 -1,-0.447715 -1,-1 V 13.999969 C 17,12.889969 16.100023,12 15.000023,12 H 14 c -9.013925,0.25516 -9.1732502,1.13645 0,1.5 h 1.000023 C 15.325719,13.5 15.5,13.706493 15.5,13.999969 v 6.531877 c 0,1.380712 1.119288,2.5 2.5,2.5 1.380712,0 2.5,-1.119288 2.5,-2.5 V 8.3045231 c 0,-0.69 -0.28,-1.32 -0.73,-1.77 z"
       inkscape:path-effect="#path-effect1461" />
    <path
       style="fill:#ffffff;fill-opacity:1;stroke:none;stroke-width:0.00722217;stroke-linecap:round;stroke-linejoin:round;stroke-miterlimit:4;stroke-dasharray:none;stroke-opacity:1;paint-order:markers stroke fill"
       d="m 118.31476,57.039524 c 10e-6,-1.068742 7.9e-4,-1.160824 0.0107,-1.419881 0.005,-0.120497 0.0136,-0.293381 0.0202,-0.390666 0.002,-0.02511 0.003,-0.0478 0.003,-0.05043 v -0.0048 h 0.13081 0.13081 l -0.001,0.234082 c -7.9e-4,0.128745 -0.002,0.61721 -0.002,1.085479 -5.2e-4,0.468269 -0.002,1.010239 -0.002,1.204379 l -10e-4,0.352977 h -0.14409 -0.14408 z"
       id="path872" />
    <path
       style="fill:#ffffff;fill-opacity:1;stroke:none;stroke-width:0.0204274;stroke-linecap:round;stroke-linejoin:round;stroke-miterlimit:4;stroke-dasharray:none;stroke-opacity:1;paint-order:markers stroke fill"
       d="m 118.31362,61.893844 v -3.840376 h 0.14506 0.14505 l -0.004,1.424752 c -0.002,0.783614 -0.006,2.511785 -0.008,3.840377 l -0.004,2.415624 h -0.13689 -0.13719 z"
       id="path874" />
    <rect
       style="opacity:1;mix-blend-mode:normal;fill:#4caf50;fill-opacity:1;stroke:none;stroke-width:12.1512;stroke-linejoin:round;stroke-miterlimit:4;stroke-dasharray:none;paint-order:stroke fill markers"
       id="rect879"
       width="246.24231"
       height="246.24231"
       x="25.670841"
       y="-1.0915922"
       transform="rotate(5.6272875)" />
  </g>
  <g
     inkscape:groupmode="layer"
     id="layer3"
     inkscape:label="Warstwa 3">
    <path
       style="fill:#ffffff;fill-opacity:1;stroke:#ffffff;stroke-width:0.90138;stroke-linecap:round;stroke-linejoin:round;stroke-miterlimit:4;stroke-dasharray:none;stroke-opacity:1;paint-order:markers stroke fill"
       d="m 79.805038,230.03525 c -9.191806,-1.29081 -16.680501,-7.9524 -19.099212,-16.98976 -0.48971,-1.82978 -0.50914,-4.15819 -0.50914,-61.01192 0,-56.593827 0.02137,-59.184733 0.502009,-60.875426 0.732633,-2.57707 1.715984,-4.775663 3.09987,-6.930725 1.752333,-2.728831 34.23172,-35.180893 36.183413,-36.152974 3.247812,-1.61763 7.143072,-0.12289 9.059792,3.47654 0.66088,1.241052 0.64191,3.843633 -0.0381,5.227866 -0.33776,0.687524 -3.76938,4.271615 -9.336636,9.751443 -4.84143,4.765403 -8.798548,8.74001 -8.793598,8.832461 0.0049,0.09245 1.07832,0.680127 2.385268,1.305957 4.438442,2.125332 7.586526,5.317127 9.867606,10.004618 1.83542,3.77168 2.29729,5.766038 2.29729,9.919533 0,4.073327 -0.45917,6.123317 -2.16778,9.678197 -2.84525,5.91971 -8.387623,10.51017 -14.708504,12.1823 -3.92546,1.03844 -8.959763,0.82585 -13.016336,-0.54966 -1.064788,-0.36105 -1.977897,-0.65645 -2.029132,-0.65645 -0.05124,0 -0.06042,20.7597 -0.02041,46.13264 l 0.07275,46.13261 0.634117,1.5658 c 1.180922,2.91601 4.145162,5.21818 7.218262,5.60605 5.393305,0.68071 9.794062,-2.61452 10.562005,-7.9087 0.136963,-0.94422 0.250356,-15.45706 0.253386,-32.42969 0.0061,-34.21916 -0.109353,-32.04964 1.926262,-36.1955 0.803578,-1.63662 1.624275,-2.77046 3.064061,-4.23319 2.293739,-2.33027 4.388749,-3.65921 7.421179,-4.7075 2.05848,-0.7116 2.49641,-0.759 7.96733,-0.86229 l 5.78915,-0.1093 0.0718,-38.496174 0.0718,-38.496139 0.76699,-1.557119 c 0.90117,-1.82953 2.22136,-3.002512 4.21824,-3.747875 1.41703,-0.528929 2.27774,-0.538018 50.94499,-0.538018 36.77981,0 49.77501,0.08107 50.55955,0.315402 1.4109,0.421421 3.1906,1.981245 3.80889,3.338299 0.58913,1.293086 0.67766,4.028106 0.18359,5.672129 -0.18181,0.604982 -0.7645,1.553684 -1.29486,2.108227 -1.92192,2.009548 1.37323,1.882574 -48.85546,1.882574 h -44.92989 v 34.782987 34.783017 l 42.86671,0.0713 c 41.22711,0.0685 42.90319,0.0906 43.82081,0.57789 1.32826,0.70529 2.41153,1.76132 3.02358,2.94759 0.703,1.36251 0.70617,4.53622 0.006,6.07283 -0.61828,1.35706 -2.39799,2.91688 -3.80888,3.3383 -0.78174,0.2335 -12.07335,0.3154 -43.48212,0.3154 H 133.9355 l -0.002,39.33842 c -0.001,25.73864 -0.0993,39.93614 -0.28348,41.06738 -0.37457,2.30133 -1.38049,4.21939 -2.64891,5.0508 -2.99724,1.9646 -7.92908,1.32151 -10.40548,-1.35684 -2.25745,-2.44154 -2.05317,1.73976 -2.13464,-43.69579 l -0.0725,-40.44702 -5.01958,0.0895 c -5.48745,0.0978 -5.74348,0.16865 -7.08565,1.96047 -0.55849,0.7456 -0.56292,0.95619 -0.69989,33.27479 l -0.13771,32.52444 -0.75265,2.39763 c -0.41395,1.3187 -1.01074,2.90854 -1.32619,3.53299 -3.10679,6.14982 -8.669261,10.58579 -15.364637,12.25301 -2.098588,0.52256 -6.076609,0.73452 -8.197077,0.43674 z m 6.809653,-125.10736 c 1.897768,-0.86617 3.410597,-2.25434 4.402927,-4.04013 0.743519,-1.338027 0.800927,-1.645867 0.800927,-4.294897 0,-2.649034 -0.05741,-2.956872 -0.800927,-4.294899 -1.001149,-1.801656 -2.502213,-3.169904 -4.482102,-4.085521 -3.35159,-1.549969 -7.917139,-0.650907 -10.415336,2.051018 -1.740843,1.882815 -2.501422,3.807325 -2.501422,6.329402 0,2.48014 0.738955,4.394217 2.407108,6.235017 2.583884,2.8513 7.01662,3.73041 10.588825,2.10001 z"
       id="path870" />
  </g>
</svg>
