<?xml version="1.0" encoding="UTF-8" standalone="no"?>
<svg
   xmlns:osb="http://www.openswatchbook.org/uri/2009/osb"
   xmlns:dc="http://purl.org/dc/elements/1.1/"
   xmlns:cc="http://creativecommons.org/ns#"
   xmlns:rdf="http://www.w3.org/1999/02/22-rdf-syntax-ns#"
   xmlns:svg="http://www.w3.org/2000/svg"
   xmlns="http://www.w3.org/2000/svg"
   xmlns:sodipodi="http://sodipodi.sourceforge.net/DTD/sodipodi-0.dtd"
   xmlns:inkscape="http://www.inkscape.org/namespaces/inkscape"
   width="1077mm"
   height="271mm"
   viewBox="0 0 1077 270.99999"
   version="1.1"
   id="svg8"
   sodipodi:docname="logo7wb_f.svg"
   inkscape:version="1.0.1 (3bc2e813f5, 2020-09-07)">
  <defs
     id="defs2">
    <linearGradient
       id="linearGradient886"
       osb:paint="solid">
      <stop
         style="stop-color:#4caf50;stop-opacity:1;"
         offset="0"
         id="stop884" />
    </linearGradient>
    <inkscape:path-effect
       effect="bspline"
       id="path-effect870"
       is_visible="true"
       lpeversion="1"
       weight="33.333333"
       steps="2"
       helper_size="0"
       apply_no_weight="true"
       apply_with_weight="true"
       only_selected="false" />
    <rect
       x="8.6934528"
       y="3.6852679"
       width="3.2127976"
       height="18.331844"
       id="rect844" />
    <rect
       x="6.8035712"
       y="6.9925594"
       width="5.4806547"
       height="20.977678"
       id="rect838" />
    <clipPath
       clipPathUnits="userSpaceOnUse"
       id="clipPath1457">
      <rect
         style="display:none;fill:#808080;fill-opacity:1;stroke:none;stroke-width:5.02915;stroke-linejoin:round;paint-order:markers fill stroke"
         id="rect1459"
         width="11.30266"
         height="21.080622"
         x="2.7881393"
         y="1.1490486"
         d="M 2.7881393,1.1490486 H 14.090799 V 22.22967 H 2.7881393 Z" />
      <path
         id="lpe_path-effect1461"
         style="fill:#808080;fill-opacity:1;stroke:none;stroke-width:5.02915;stroke-linejoin:round;paint-order:markers fill stroke"
         class="powerclip"
         d="M 2.1796785,-2.1325773 H 25.5 V 28.031846 H 2.1796785 Z M 2.7881393,1.1490486 V 22.22967 H 14.090799 V 1.1490486 Z" />
    </clipPath>
    <inkscape:path-effect
       effect="powerclip"
       id="path-effect1461"
       is_visible="true"
       lpeversion="1"
       inverse="true"
       flatten="false"
       hide_clip="false"
       message="m 100.32193,50.78134 v -3.840376 h 0.14506 0.14505 l -0.004,1.424752 c -0.002,0.783614 -0.006,2.511785 -0.008,3.840377 l -0.004,2.415624 h -0.13689 -0.13719 z" />
  </defs>
  <sodipodi:namedview
     id="base"
     pagecolor="#ffffff"
     bordercolor="#666666"
     borderopacity="1.0"
     inkscape:pageopacity="0.0"
     inkscape:pageshadow="2"
     inkscape:zoom="0.23695633"
     inkscape:cx="1804.9263"
     inkscape:cy="966.50256"
     inkscape:document-units="mm"
     inkscape:current-layer="layer2"
     inkscape:document-rotation="0"
     showgrid="false"
     inkscape:window-width="1920"
     inkscape:window-height="1017"
     inkscape:window-x="-8"
     inkscape:window-y="-8"
     inkscape:window-maximized="1"
     inkscape:snap-intersection-paths="true"
     inkscape:object-nodes="false"
     inkscape:snap-smooth-nodes="false"
     showguides="false"
     inkscape:lockguides="false"
     units="mm"
     width="209mm" />
  <metadata
     id="metadata5">
    <rdf:RDF>
      <cc:Work
         rdf:about="">
        <dc:format>image/svg+xml</dc:format>
        <dc:type
           rdf:resource="http://purl.org/dc/dcmitype/StillImage" />
        <dc:title></dc:title>
      </cc:Work>
    </rdf:RDF>
  </metadata>
  <g
     inkscape:label="Warstwa 1"
     inkscape:groupmode="layer"
     id="layer1">
    <text
       xml:space="preserve"
       id="text836"
       style="font-style:normal;font-weight:normal;font-size:10.5833px;line-height:1.25;font-family:sans-serif;white-space:pre;shape-inside:url(#rect838);fill:#000000;fill-opacity:1;stroke:none;" />
    <text
       xml:space="preserve"
       id="text842"
       style="font-style:normal;font-weight:normal;font-size:10.5833px;line-height:1.25;font-family:sans-serif;white-space:pre;shape-inside:url(#rect844);fill:#000000;fill-opacity:1;stroke:none;" />
    <rect
       style="fill:#4caf50;fill-opacity:1;stroke:#ffffff;stroke-width:0.813378;stroke-linecap:round;stroke-linejoin:round;paint-order:markers stroke fill"
       id="rect851"
       width="951.4223"
       height="223.40483"
       x="124.79153"
       y="28.114191" />
  </g>
  <g
     inkscape:groupmode="layer"
     id="layer2"
     inkscape:label="Warstwa 2">
    <path
       d="m 18,9.3045231 c -0.552285,0 -1,-0.4477153 -1,-1 0,-0.5522847 0.447715,-1 1,-1 0.552285,0 1,0.4477153 1,1 0,0.5522847 -0.447715,1 -1,1 m 1.77,-2.77 C 18.670458,5.3942422 17.488022,4.2334929 16.349896,3.0958378 c -0.693509,-0.6932228 -1.774388,0.3461687 -1.06,1.06 L 17.11,5.9745231 c -0.94,0.33 -1.61,1.26 -1.61,2.33 0,1.380712 1.119288,2.4999999 2.5,2.4999999 0.36,0 0.69,-0.08 1,-0.21 v 9.937323 c 0,0.552285 -0.447715,1 -1,1 -0.552285,0 -1,-0.447715 -1,-1 V 13.999969 C 17,12.889969 16.100023,12 15.000023,12 H 14 c -9.013925,0.25516 -9.1732502,1.13645 0,1.5 h 1.000023 C 15.325719,13.5 15.5,13.706493 15.5,13.999969 v 6.531877 c 0,1.380712 1.119288,2.5 2.5,2.5 1.380712,0 2.5,-1.119288 2.5,-2.5 V 8.3045231 c 0,-0.69 -0.28,-1.32 -0.73,-1.77 z"
       id="path2"
       clip-path="url(#clipPath1457)"
       transform="matrix(-9.1268289,0,0,9.0823889,247.28204,21.170185)"
       style="fill:#ffffff;fill-opacity:1;stroke-width:0.911738;stroke-miterlimit:4;stroke-dasharray:none"
       sodipodi:nodetypes="cssscccscsscsssssccssssssc"
       inkscape:original-d="m 18,9.3045231 c -0.552285,0 -1,-0.4477153 -1,-1 0,-0.5522847 0.447715,-1 1,-1 0.552285,0 1,0.4477153 1,1 0,0.5522847 -0.447715,1 -1,1 m 1.77,-2.77 C 18.670458,5.3942422 17.488022,4.2334929 16.349896,3.0958378 c -0.693509,-0.6932228 -1.774388,0.3461687 -1.06,1.06 L 17.11,5.9745231 c -0.94,0.33 -1.61,1.26 -1.61,2.33 0,1.380712 1.119288,2.4999999 2.5,2.4999999 0.36,0 0.69,-0.08 1,-0.21 v 9.937323 c 0,0.552285 -0.447715,1 -1,1 -0.552285,0 -1,-0.447715 -1,-1 V 13.999969 C 17,12.889969 16.100023,12 15.000023,12 H 14 c -9.013925,0.25516 -9.1732502,1.13645 0,1.5 h 1.000023 C 15.325719,13.5 15.5,13.706493 15.5,13.999969 v 6.531877 c 0,1.380712 1.119288,2.5 2.5,2.5 1.380712,0 2.5,-1.119288 2.5,-2.5 V 8.3045231 c 0,-0.69 -0.28,-1.32 -0.73,-1.77 z"
       inkscape:path-effect="#path-effect1461" />
    <path
       style="fill:#ffffff;fill-opacity:1;stroke:none;stroke-width:0.00722217;stroke-linecap:round;stroke-linejoin:round;stroke-miterlimit:4;stroke-dasharray:none;stroke-opacity:1;paint-order:markers stroke fill"
       d="m 118.31476,57.039524 c 10e-6,-1.068742 7.9e-4,-1.160824 0.0107,-1.419881 0.005,-0.120497 0.0136,-0.293381 0.0202,-0.390666 0.002,-0.02511 0.003,-0.0478 0.003,-0.05043 v -0.0048 h 0.13081 0.13081 l -0.001,0.234082 c -7.9e-4,0.128745 -0.002,0.61721 -0.002,1.085479 -5.2e-4,0.468269 -0.002,1.010239 -0.002,1.204379 l -10e-4,0.352977 h -0.14409 -0.14408 z"
       id="path872" />
    <path
       style="fill:#ffffff;fill-opacity:1;stroke:none;stroke-width:0.0204274;stroke-linecap:round;stroke-linejoin:round;stroke-miterlimit:4;stroke-dasharray:none;stroke-opacity:1;paint-order:markers stroke fill"
       d="m 118.31362,61.893844 v -3.840376 h 0.14506 0.14505 l -0.004,1.424752 c -0.002,0.783614 -0.006,2.511785 -0.008,3.840377 l -0.004,2.415624 h -0.13689 -0.13719 z"
       id="path874" />
    <rect
       style="opacity:1;mix-blend-mode:normal;fill:#1d1d1d;fill-opacity:1;stroke:none;stroke-width:12.1512;stroke-linejoin:round;stroke-miterlimit:4;stroke-dasharray:none;paint-order:stroke fill markers"
       id="rect879"
       width="246.24231"
       height="246.24231"
       x="25.670841"
       y="-1.0915922"
       transform="rotate(5.6272875)" />
  </g>
  <g
     inkscape:groupmode="layer"
     id="layer3"
     inkscape:label="Warstwa 3">
    <g
       aria-label="Fuelment"
       id="text14"
       style="font-style:normal;font-variant:normal;font-weight:300;font-stretch:normal;font-size:257.574px;line-height:1.25;font-family:Nunito;-inkscape-font-specification:'Nunito Light';letter-spacing:-16.0984px;fill:#ffffff;fill-opacity:1;stroke:none;stroke-width:2.68306"
       transform="translate(52.830654,37.292364)">
      <path
         id="path875"
         style="font-style:normal;font-variant:normal;font-weight:300;font-stretch:normal;font-size:257.574px;font-family:Nunito;-inkscape-font-specification:'Nunito Light';fill:#ffffff;fill-opacity:1;stroke-width:2.68306"
         d="m 983.4262,193.56348 q -13.90899,0 -23.18166,-5.15148 -9.27266,-5.15148 -13.90899,-14.68172 -4.63634,-9.78781 -4.63634,-23.95438 V 79.200618 h -19.06047 q -3.34847,0 -5.40906,-1.545444 -2.06059,-1.803018 -2.06059,-4.893906 0,-2.833315 2.06059,-4.378759 2.06059,-1.803018 5.40906,-1.803018 h 19.06047 v -32.19675 q 0,-4.121184 2.06059,-5.924202 2.0606,-2.060592 5.92421,-2.060592 3.60603,0 5.66663,2.060592 2.06059,1.803018 2.06059,5.924202 v 32.19675 h 34.77249 q 3.60603,0 5.40905,1.803018 1.80302,1.545444 1.80302,4.378759 0,3.090888 -1.80302,4.893906 -1.80302,1.545444 -5.40905,1.545444 H 957.41123 V 147.7153 q 0,15.71202 6.43935,23.95439 6.43935,8.24236 21.37864,8.24236 5.15148,0 8.49994,-1.03029 3.60604,-1.28787 5.9242,-1.28787 1.80304,0 3.09094,1.54544 1.5454,1.54545 1.5454,4.89391 0,2.06059 -1.0303,4.12118 -0.7727,2.06059 -3.0909,2.57574 -2.8333,1.0303 -7.72721,1.80302 -4.8939,1.0303 -9.01509,1.0303 z m -167.29413,-0.51515 q -3.86361,0 -5.9242,-2.06059 -2.06059,-2.0606 -2.06059,-5.92421 V 73.018842 q 0,-4.121185 2.06059,-6.181777 2.06059,-2.060592 5.9242,-2.060592 3.60604,0 5.40905,2.060592 2.0606,2.060592 2.0606,6.181777 v 24.211956 l -2.83332,-1.545444 q 5.15148,-15.45444 17.51503,-23.439234 12.62113,-7.984795 28.84829,-7.984795 14.9393,0 24.72711,5.409054 10.04538,5.151481 14.93929,15.969589 4.89391,10.818108 4.89391,27.045272 v 72.37829 q 0,3.86361 -2.0606,5.92421 -2.06059,2.06059 -5.66662,2.06059 -3.86361,0 -5.92421,-2.06059 -2.06059,-2.0606 -2.06059,-5.92421 v -71.09042 q 0,-18.802904 -7.46964,-27.302846 -7.46965,-8.757516 -23.69681,-8.757516 -18.54533,0 -29.87859,11.59083 -11.07568,11.333252 -11.07568,30.651302 v 64.90865 q 0,7.9848 -7.72722,7.9848 z m -73.27938,0.51515 q -19.31805,0 -33.22705,-7.72722 -13.90899,-7.72722 -21.37864,-22.15137 -7.46964,-14.42414 -7.46964,-34.25734 0,-19.57563 7.46964,-33.99977 7.46965,-14.681718 20.60592,-22.924086 13.39385,-8.242369 30.65131,-8.242369 12.62112,0 22.15136,4.378758 9.78781,4.121185 16.48474,12.105979 6.9545,7.72722 10.56053,19.060476 3.60604,11.075682 3.60604,25.242252 0,3.60604 -2.06059,5.40905 -1.80302,1.80302 -5.15148,1.80302 h -92.98422 v -11.59083 h 90.40848 l -4.12119,3.34846 q 0,-14.93929 -4.37875,-25.242248 -4.37876,-10.560534 -13.13628,-16.227162 -8.49994,-5.666628 -21.12107,-5.666628 -14.16657,0 -23.95438,6.696924 -9.78781,6.43935 -14.68172,18.030184 -4.8939,11.33325 -4.8939,26.27254 v 1.28787 q 0,24.72711 12.10597,38.12096 12.10598,13.13627 33.99977,13.13627 9.53024,0 18.28776,-2.57574 9.01509,-2.57574 17.51503,-8.75751 2.57574,-1.80302 4.89391,-1.80302 2.57574,0 4.12118,1.28787 1.80302,1.28787 2.31817,3.34846 0.77272,1.80302 -0.25758,4.12118 -0.77272,2.0606 -3.34846,3.86361 -8.24237,6.69693 -19.8332,10.30296 -11.59083,3.34847 -23.18166,3.34847 z m -247.91452,-0.51515 q -3.86361,0 -5.9242,-2.06059 -2.06059,-2.0606 -2.06059,-5.92421 V 73.018842 q 0,-4.121185 2.06059,-6.181777 2.06059,-2.060592 5.9242,-2.060592 3.60604,0 5.40906,2.060592 2.06059,2.060592 2.06059,6.181777 v 24.46953 l -2.83332,-1.803018 q 4.63634,-15.196866 15.71202,-23.18166 11.07568,-8.242369 26.53012,-8.242369 16.48474,0 26.27255,7.984795 10.04539,7.984794 13.13627,23.954382 h -3.86361 q 4.37876,-14.424144 16.22717,-23.18166 12.10597,-8.757517 28.33314,-8.757517 13.90899,0 22.92408,5.409054 9.27267,5.409055 13.909,16.227163 4.63633,10.560534 4.63633,26.787698 v 72.37829 q 0,3.86361 -2.06059,5.92421 -2.06059,2.06059 -5.9242,2.06059 -3.60604,0 -5.66663,-2.06059 -2.06059,-2.0606 -2.06059,-5.92421 v -71.09042 q 0,-18.802904 -6.69693,-27.302846 -6.43935,-8.757516 -21.89379,-8.757516 -16.48473,0 -26.27255,11.59083 -9.78781,11.333252 -9.78781,30.908882 v 64.65107 q 0,3.86361 -2.06059,5.92421 -2.06059,2.06059 -5.66663,2.06059 -3.86361,0 -5.9242,-2.06059 -2.06059,-2.0606 -2.06059,-5.92421 v -71.09042 q 0,-18.802904 -6.69693,-27.302846 -6.43935,-8.757516 -21.63621,-8.757516 -16.74231,0 -26.53013,11.59083 -9.78781,11.333252 -9.78781,30.908882 v 64.65107 q 0,7.9848 -7.72722,7.9848 z m -29.74973,0.51515 q -17.25746,0 -26.7877,-10.81811 -9.27266,-10.81811 -9.27266,-30.65131 V 16.35256 q 0,-4.121184 2.06059,-5.924202 2.06059,-2.0605917 5.9242,-2.0605917 3.60604,0 5.66663,2.0605917 2.06059,1.803018 2.06059,5.924202 v 133.93848 q 0,14.9393 5.92421,22.40894 5.9242,7.21207 17.25745,7.21207 2.57574,0 4.37876,-0.25757 1.80302,-0.25757 3.60604,-0.25757 2.31816,-0.25758 3.34846,1.03029 1.28787,1.0303 1.28787,4.63633 0,3.60604 -1.80302,5.40906 -1.80302,1.80302 -5.9242,2.57574 -1.80302,0.25757 -3.86361,0.25757 -1.80302,0.25758 -3.86361,0.25758 z m -101.35495,0 q -19.31805,0 -33.22704,-7.72722 -13.909,-7.72722 -21.37864,-22.15137 -7.46965,-14.42414 -7.46965,-34.25734 0,-19.57563 7.46965,-33.99977 7.46964,-14.681718 20.60592,-22.924086 13.39384,-8.242369 30.6513,-8.242369 12.62113,0 22.15137,4.378758 9.78781,4.121185 16.48473,12.105979 6.9545,7.72722 10.56054,19.060476 3.60603,11.075682 3.60603,25.242252 0,3.60604 -2.06059,5.40905 -1.80302,1.80302 -5.15148,1.80302 h -92.98421 v -11.59083 h 90.40847 l -4.12118,3.34846 q 0,-14.93929 -4.37876,-25.242248 -4.37876,-10.560534 -13.13627,-16.227162 -8.49995,-5.666628 -21.12107,-5.666628 -14.16657,0 -23.95439,6.696924 -9.78781,6.43935 -14.68171,18.030184 -4.89391,11.33325 -4.89391,26.27254 v 1.28787 q 0,24.72711 12.10598,38.12096 12.10598,13.13627 33.99977,13.13627 9.53024,0 18.28775,-2.57574 9.01509,-2.57574 17.51503,-8.75751 2.57574,-1.80302 4.89391,-1.80302 2.57574,0 4.12118,1.28787 1.80302,1.28787 2.31817,3.34846 0.77272,1.80302 -0.25757,4.12118 -0.77273,2.0606 -3.34847,3.86361 -8.24236,6.69693 -19.83319,10.30296 -11.59083,3.34847 -23.18167,3.34847 z m -136.64286,0 q -14.93929,0 -24.98468,-5.40906 -9.78781,-5.40905 -14.68172,-16.22716 -4.8939,-10.81811 -4.8939,-26.7877 V 73.018842 q 0,-4.121185 2.06059,-6.181777 2.06059,-2.060592 5.9242,-2.060592 3.60604,0 5.66663,2.060592 2.06059,2.060592 2.06059,6.181777 v 71.347998 q 0,18.03018 7.46965,27.04527 7.46964,8.75752 23.43923,8.75752 17.51503,0 28.33314,-11.59083 10.81811,-11.84841 10.81811,-30.90888 V 73.018842 q 0,-4.121185 2.06059,-6.181777 2.06059,-2.060592 5.9242,-2.060592 3.60604,0 5.66663,2.060592 2.0606,2.060592 2.0606,6.181777 V 185.06353 q 0,7.9848 -7.46965,7.9848 -3.60604,0 -5.66663,-2.06059 -2.06059,-2.0606 -2.06059,-5.92421 v -25.49982 l 3.09089,1.80302 q -4.89391,15.71201 -16.99989,23.95438 -12.10598,8.24237 -27.81799,8.24237 z M 74.239881,193.04833 q -4.121184,0 -6.43935,-2.31817 -2.318166,-2.31816 -2.318166,-6.43935 V 18.9283 q 0,-4.378758 2.318166,-6.696924 2.318166,-2.3181657 6.43935,-2.3181657 h 95.044809 q 3.34846,0 5.15148,1.8030177 2.06059,1.803018 2.06059,4.893906 0,3.606037 -2.06059,5.409055 -1.80302,1.545444 -5.15148,1.545444 H 81.19438 V 92.85204 h 82.93883 q 3.34846,0 5.15148,1.803018 2.06059,1.545444 2.06059,4.893906 0,3.348466 -2.06059,5.151476 -1.80302,1.80302 -5.15148,1.80302 H 81.19438 v 77.78735 q 0,8.75752 -6.954499,8.75752 z" />
    </g>
    <path
       style="fill:#ffffff;fill-opacity:1;stroke:#ffffff;stroke-width:0.9;stroke-linecap:round;stroke-linejoin:round;stroke-miterlimit:4;stroke-dasharray:none;stroke-opacity:1;paint-order:markers stroke fill"
       d="m 80.003836,230.03525 c -9.163677,-1.29081 -16.629454,-7.9524 -19.040763,-16.98976 -0.488212,-1.82978 -0.507582,-4.15819 -0.507582,-61.01192 0,-56.593827 0.0213,-59.184733 0.500472,-60.875426 0.730391,-2.57707 1.710733,-4.775663 3.090384,-6.930725 1.74697,-2.728831 34.126963,-35.180893 36.072683,-36.152974 3.23787,-1.61763 7.12121,-0.12289 9.03207,3.47654 0.65885,1.241052 0.63994,3.843633 -0.038,5.227866 -0.33672,0.687524 -3.75784,4.271615 -9.30806,9.751443 -4.826614,4.765403 -8.771622,8.74001 -8.766688,8.832461 0.0049,0.09245 1.075021,0.680127 2.377969,1.305957 4.424859,2.125332 7.563309,5.317127 9.837409,10.004618 1.8298,3.77168 2.29026,5.766038 2.29026,9.919533 0,4.073327 -0.45777,6.123317 -2.16115,9.678197 -2.83654,5.91971 -8.361951,10.51017 -14.663489,12.1823 -3.913447,1.03844 -8.932344,0.82585 -12.976503,-0.54966 -1.061529,-0.36105 -1.971844,-0.65645 -2.022922,-0.65645 -0.05108,0 -0.06023,20.7597 -0.02035,46.13264 l 0.07253,46.13261 0.632177,1.5658 c 1.177308,2.91601 4.132477,5.21818 7.196172,5.60605 5.376801,0.68071 9.76409,-2.61452 10.529683,-7.9087 0.136544,-0.94422 0.24959,-15.45706 0.252611,-32.42969 0.0061,-34.21916 -0.109019,-32.04964 1.920367,-36.1955 0.801119,-1.63662 1.619304,-2.77046 3.054684,-4.23319 2.28672,-2.33027 4.37532,-3.65921 7.39847,-4.7075 2.05218,-0.7116 2.48877,-0.759 7.94295,-0.86229 l 5.77143,-0.1093 0.0716,-38.496174 0.0716,-38.496139 0.76464,-1.557119 c 0.89841,-1.82953 2.21456,-3.002512 4.20533,-3.747875 1.4127,-0.528929 2.27077,-0.538018 50.78909,-0.538018 36.66726,0 49.62269,0.08107 50.40483,0.315402 1.40658,0.421421 3.18083,1.981245 3.79723,3.338299 0.58733,1.293086 0.67559,4.028106 0.18303,5.672129 -0.18126,0.604982 -0.76216,1.553684 -1.2909,2.108227 -1.91604,2.009548 1.36903,1.882574 -48.70595,1.882574 h -44.79239 v 34.782987 34.783017 l 42.73552,0.0713 c 41.10095,0.0685 42.7719,0.0906 43.68671,0.57789 1.3242,0.70529 2.40415,1.76132 3.01433,2.94759 0.70085,1.36251 0.70401,4.53622 0.006,6.07283 -0.61639,1.35706 -2.39065,2.91688 -3.79722,3.3383 -0.77935,0.2335 -12.03641,0.3154 -43.34906,0.3154 H 133.9687 l -0.002,39.33842 c -0.001,25.73864 -0.099,39.93614 -0.28261,41.06738 -0.37342,2.30133 -1.37627,4.21939 -2.6408,5.0508 -2.98807,1.9646 -7.90482,1.32151 -10.37364,-1.35684 -2.25054,-2.44154 -2.04689,1.73976 -2.12811,-43.69579 l -0.0723,-40.44702 -5.00422,0.0895 c -5.47065,0.0978 -5.7259,0.16865 -7.06396,1.96047 -0.55678,0.7456 -0.5612,0.95619 -0.69775,33.27479 l -0.13729,32.52444 -0.75034,2.39763 c -0.41269,1.3187 -1.00765,2.90854 -1.32214,3.53299 -3.09728,6.14982 -8.642726,10.58579 -15.317613,12.25301 -2.092166,0.52256 -6.058013,0.73452 -8.171992,0.43674 z M 86.79265,104.92789 c 1.891961,-0.86617 3.40016,-2.25434 4.389453,-4.04013 0.741244,-1.338027 0.798476,-1.645867 0.798476,-4.294897 0,-2.649034 -0.05723,-2.956872 -0.798476,-4.294899 -0.998085,-1.801656 -2.494555,-3.169904 -4.468386,-4.085521 -3.341333,-1.549969 -7.89291,-0.650907 -10.383462,2.051018 -1.735516,1.882815 -2.493767,3.807325 -2.493767,6.329402 0,2.48014 0.736693,4.394217 2.399742,6.235017 2.575976,2.8513 6.995147,3.73041 10.55642,2.10001 z"
       id="path870" />
  </g>
</svg>
